<?xml version="1.0" encoding="UTF-8" standalone="no"?>
<!-- Created with Inkscape (http://www.inkscape.org/) -->

<svg
   width="64"
   height="64"
   viewBox="0 0 16.933333 16.933333"
   version="1.1"
   id="svg1"
   inkscape:version="1.4 (e7c3feb100, 2024-10-09)"
   sodipodi:docname="slug.svg"
   inkscape:export-filename="slug.png"
   inkscape:export-xdpi="192"
   inkscape:export-ydpi="192"
   xmlns:inkscape="http://www.inkscape.org/namespaces/inkscape"
   xmlns:sodipodi="http://sodipodi.sourceforge.net/DTD/sodipodi-0.dtd"
   xmlns="http://www.w3.org/2000/svg"
   xmlns:svg="http://www.w3.org/2000/svg">
  <sodipodi:namedview
     id="namedview1"
     pagecolor="#ffffff"
     bordercolor="#000000"
     borderopacity="0.25"
     inkscape:showpageshadow="2"
     inkscape:pageopacity="0.0"
     inkscape:pagecheckerboard="0"
     inkscape:deskcolor="#d1d1d1"
     inkscape:document-units="mm"
     inkscape:zoom="9.372654"
     inkscape:cx="22.405607"
     inkscape:cy="33.981837"
     inkscape:window-width="2048"
     inkscape:window-height="1208"
     inkscape:window-x="0"
     inkscape:window-y="0"
     inkscape:window-maximized="1"
     inkscape:current-layer="layer1" />
  <defs
     id="defs1" />
  <g
     inkscape:label="Layer 1"
     inkscape:groupmode="layer"
     id="layer1">
    <path
       style="fill:#f2f2f2;stroke-width:0.36563"
       d="m 3.1934892,15.949547 c 0,0 -1.5214027,-6.3586826 1.8334849,-8.0751367 3.3548874,-1.716454 4.6032177,-1.4043714 5.2663929,-3.0428048 0.663175,-1.6384336 0.07802,-4.40816626 0.07802,-4.40816626 0,0 1.053279,2.10655736 1.599423,2.26259846 0.546145,0.1560415 1.755465,-1.6774435 1.755465,-1.6774435 0,0 -0.521667,1.6956298 -0.917443,3.2337971 -0.253755,0.9862 -0.607021,2.0017279 -0.955052,2.422699 C 10.548037,8.2444909 9.9825732,8.5432815 9.1179401,8.9554216 8.1270158,9.4277601 7.0255458,9.5851169 6.1192629,10.25404 3.788814,11.974133 3.1934892,15.949547 3.1934892,15.949547 Z"
       id="path1"
       sodipodi:nodetypes="csscscssssc" />
  </g>
</svg>
